G75*
%MOIN*%
%OFA0B0*%
%FSLAX25Y25*%
%IPPOS*%
%LPD*%
%AMOC8*
5,1,8,0,0,1.08239X$1,22.5*
%
%ADD10C,0.05600*%
%ADD11OC8,0.10400*%
%ADD12OC8,0.05600*%
%ADD13C,0.06400*%
%ADD14OC8,0.06700*%
%ADD15OC8,0.08900*%
D10*
X0027564Y0085775D02*
X0027564Y0090975D01*
X0037564Y0090975D02*
X0037564Y0085775D01*
X0047564Y0085775D02*
X0047564Y0090975D01*
X0057564Y0090975D02*
X0057564Y0085775D01*
X0067564Y0085775D02*
X0067564Y0090975D01*
X0077564Y0090975D02*
X0077564Y0085775D01*
X0087564Y0085775D02*
X0087564Y0090975D01*
X0087564Y0115775D02*
X0087564Y0120975D01*
X0077564Y0120975D02*
X0077564Y0115775D01*
X0067564Y0115775D02*
X0067564Y0120975D01*
X0057564Y0120975D02*
X0057564Y0115775D01*
X0047564Y0115775D02*
X0047564Y0120975D01*
X0037564Y0120975D02*
X0037564Y0115775D01*
X0027564Y0115775D02*
X0027564Y0120975D01*
D11*
X0088903Y0012824D03*
D12*
X0073588Y0011800D03*
X0063588Y0011800D03*
X0013667Y0098375D03*
X0013667Y0108375D03*
D13*
X0016777Y0148800D02*
X0016777Y0154800D01*
X0026777Y0154800D02*
X0026777Y0148800D01*
X0036777Y0148800D02*
X0036777Y0154800D01*
X0046777Y0154800D02*
X0046777Y0148800D01*
X0056777Y0148800D02*
X0056777Y0154800D01*
X0066777Y0154800D02*
X0066777Y0148800D01*
X0076777Y0148800D02*
X0076777Y0154800D01*
X0086777Y0154800D02*
X0086777Y0148800D01*
D14*
X0086777Y0141800D03*
X0086777Y0131800D03*
X0076777Y0131800D03*
X0076777Y0141800D03*
X0066777Y0141800D03*
X0066777Y0131800D03*
X0056777Y0131800D03*
X0056777Y0141800D03*
X0046777Y0141800D03*
X0046777Y0131800D03*
X0036777Y0131800D03*
X0036777Y0141800D03*
X0026777Y0141800D03*
X0026777Y0131800D03*
X0016777Y0131800D03*
X0016777Y0141800D03*
D15*
X0036777Y0011800D03*
X0046777Y0011800D03*
M02*
