G75*
%MOIN*%
%OFA0B0*%
%FSLAX25Y25*%
%IPPOS*%
%LPD*%
%AMOC8*
5,1,8,0,0,1.08239X$1,22.5*
%
%ADD10C,0.05200*%
%ADD11OC8,0.10000*%
%ADD12OC8,0.05200*%
%ADD13C,0.06000*%
%ADD14OC8,0.06300*%
%ADD15OC8,0.08500*%
%ADD16C,0.01000*%
%ADD17C,0.02400*%
%ADD18C,0.01600*%
D10*
X0027564Y0085775D02*
X0027564Y0090975D01*
X0037564Y0090975D02*
X0037564Y0085775D01*
X0047564Y0085775D02*
X0047564Y0090975D01*
X0057564Y0090975D02*
X0057564Y0085775D01*
X0067564Y0085775D02*
X0067564Y0090975D01*
X0077564Y0090975D02*
X0077564Y0085775D01*
X0087564Y0085775D02*
X0087564Y0090975D01*
X0087564Y0115775D02*
X0087564Y0120975D01*
X0077564Y0120975D02*
X0077564Y0115775D01*
X0067564Y0115775D02*
X0067564Y0120975D01*
X0057564Y0120975D02*
X0057564Y0115775D01*
X0047564Y0115775D02*
X0047564Y0120975D01*
X0037564Y0120975D02*
X0037564Y0115775D01*
X0027564Y0115775D02*
X0027564Y0120975D01*
D11*
X0088903Y0012824D03*
D12*
X0073588Y0011800D03*
X0063588Y0011800D03*
X0013667Y0098375D03*
X0013667Y0108375D03*
D13*
X0016777Y0148800D02*
X0016777Y0154800D01*
X0026777Y0154800D02*
X0026777Y0148800D01*
X0036777Y0148800D02*
X0036777Y0154800D01*
X0046777Y0154800D02*
X0046777Y0148800D01*
X0056777Y0148800D02*
X0056777Y0154800D01*
X0066777Y0154800D02*
X0066777Y0148800D01*
X0076777Y0148800D02*
X0076777Y0154800D01*
X0086777Y0154800D02*
X0086777Y0148800D01*
D14*
X0086777Y0141800D03*
X0086777Y0131800D03*
X0076777Y0131800D03*
X0076777Y0141800D03*
X0066777Y0141800D03*
X0066777Y0131800D03*
X0056777Y0131800D03*
X0056777Y0141800D03*
X0046777Y0141800D03*
X0046777Y0131800D03*
X0036777Y0131800D03*
X0036777Y0141800D03*
X0026777Y0141800D03*
X0026777Y0131800D03*
X0016777Y0131800D03*
X0016777Y0141800D03*
D15*
X0036777Y0011800D03*
X0046777Y0011800D03*
D16*
X0031777Y0066800D02*
X0036777Y0071800D01*
X0071777Y0071800D01*
X0081777Y0076800D02*
X0086777Y0081800D01*
X0086777Y0086800D01*
X0087564Y0088375D01*
X0086777Y0096800D02*
X0091777Y0101800D01*
X0091777Y0136800D01*
X0086777Y0141800D01*
X0087564Y0118375D02*
X0086777Y0116800D01*
X0081777Y0111800D01*
X0071777Y0111800D01*
X0061777Y0101800D01*
X0058687Y0106800D02*
X0065356Y0112832D01*
X0069633Y0117511D01*
X0067564Y0118375D01*
X0058687Y0106800D02*
X0046777Y0106800D01*
X0041777Y0111800D01*
X0041777Y0136800D01*
X0036777Y0141800D01*
X0046777Y0141800D02*
X0051777Y0136800D01*
X0051777Y0126800D01*
X0056777Y0121800D01*
X0057564Y0118375D01*
X0047564Y0088375D02*
X0046777Y0086800D01*
X0051777Y0081800D01*
X0081777Y0081800D01*
X0081777Y0076800D02*
X0031777Y0076800D01*
X0027564Y0088375D02*
X0026777Y0091800D01*
X0016777Y0091800D01*
X0011777Y0096800D01*
X0013667Y0098375D01*
X0011777Y0096800D02*
X0086777Y0096800D01*
D17*
X0081777Y0081800D03*
X0071777Y0071800D03*
X0061777Y0101800D03*
X0031777Y0076800D03*
X0031777Y0066800D03*
D18*
X0008577Y0003600D02*
X0008577Y0165000D01*
X0094977Y0165000D01*
X0094977Y0015801D01*
X0091554Y0019224D01*
X0086252Y0019224D01*
X0082503Y0015475D01*
X0082503Y0010173D01*
X0086252Y0006424D01*
X0091554Y0006424D01*
X0094977Y0009847D01*
X0094977Y0003600D01*
X0008577Y0003600D01*
X0008577Y0004997D02*
X0094977Y0004997D01*
X0094977Y0006596D02*
X0091726Y0006596D01*
X0093324Y0008194D02*
X0094977Y0008194D01*
X0094923Y0009793D02*
X0094977Y0009793D01*
X0094977Y0016187D02*
X0094591Y0016187D01*
X0094977Y0017785D02*
X0092992Y0017785D01*
X0094977Y0019384D02*
X0008577Y0019384D01*
X0008577Y0020982D02*
X0094977Y0020982D01*
X0094977Y0022581D02*
X0008577Y0022581D01*
X0008577Y0024179D02*
X0094977Y0024179D01*
X0094977Y0025778D02*
X0008577Y0025778D01*
X0008577Y0027376D02*
X0094977Y0027376D01*
X0094977Y0028975D02*
X0008577Y0028975D01*
X0008577Y0030573D02*
X0094977Y0030573D01*
X0094977Y0032172D02*
X0008577Y0032172D01*
X0008577Y0033770D02*
X0094977Y0033770D01*
X0094977Y0035369D02*
X0008577Y0035369D01*
X0008577Y0036967D02*
X0094977Y0036967D01*
X0094977Y0038566D02*
X0008577Y0038566D01*
X0008577Y0040164D02*
X0094977Y0040164D01*
X0094977Y0041763D02*
X0008577Y0041763D01*
X0008577Y0043361D02*
X0094977Y0043361D01*
X0094977Y0044960D02*
X0008577Y0044960D01*
X0008577Y0046558D02*
X0094977Y0046558D01*
X0094977Y0048157D02*
X0008577Y0048157D01*
X0008577Y0049755D02*
X0094977Y0049755D01*
X0094977Y0051354D02*
X0008577Y0051354D01*
X0008577Y0052952D02*
X0094977Y0052952D01*
X0094977Y0054551D02*
X0008577Y0054551D01*
X0008577Y0056149D02*
X0094977Y0056149D01*
X0094977Y0057748D02*
X0008577Y0057748D01*
X0008577Y0059346D02*
X0094977Y0059346D01*
X0094977Y0060945D02*
X0008577Y0060945D01*
X0008577Y0062543D02*
X0094977Y0062543D01*
X0094977Y0064142D02*
X0008577Y0064142D01*
X0008577Y0065740D02*
X0029402Y0065740D01*
X0029573Y0065327D02*
X0029177Y0066283D01*
X0029177Y0067317D01*
X0029573Y0068273D01*
X0030304Y0069004D01*
X0031260Y0069400D01*
X0031690Y0069400D01*
X0034877Y0072587D01*
X0035990Y0073700D01*
X0070000Y0073700D01*
X0070304Y0074004D01*
X0071260Y0074400D01*
X0072294Y0074400D01*
X0073250Y0074004D01*
X0073981Y0073273D01*
X0074377Y0072317D01*
X0074377Y0071283D01*
X0073981Y0070327D01*
X0073250Y0069596D01*
X0072294Y0069200D01*
X0071260Y0069200D01*
X0070304Y0069596D01*
X0070000Y0069900D01*
X0037564Y0069900D01*
X0034377Y0066713D01*
X0034377Y0066283D01*
X0033981Y0065327D01*
X0033250Y0064596D01*
X0032294Y0064200D01*
X0031260Y0064200D01*
X0030304Y0064596D01*
X0029573Y0065327D01*
X0029186Y0067339D02*
X0008577Y0067339D01*
X0008577Y0068937D02*
X0030237Y0068937D01*
X0032826Y0070536D02*
X0008577Y0070536D01*
X0008577Y0072134D02*
X0034424Y0072134D01*
X0033250Y0074596D02*
X0032294Y0074200D01*
X0031260Y0074200D01*
X0030304Y0074596D01*
X0029573Y0075327D01*
X0029177Y0076283D01*
X0029177Y0077317D01*
X0029573Y0078273D01*
X0030304Y0079004D01*
X0031260Y0079400D01*
X0032294Y0079400D01*
X0033250Y0079004D01*
X0033554Y0078700D01*
X0080990Y0078700D01*
X0081490Y0079200D01*
X0081260Y0079200D01*
X0080304Y0079596D01*
X0080000Y0079900D01*
X0050990Y0079900D01*
X0048894Y0081996D01*
X0048360Y0081775D01*
X0046769Y0081775D01*
X0045298Y0082384D01*
X0044173Y0083509D01*
X0043564Y0084979D01*
X0043564Y0091770D01*
X0044173Y0093241D01*
X0045298Y0094366D01*
X0046588Y0094900D01*
X0038540Y0094900D01*
X0039830Y0094366D01*
X0040955Y0093241D01*
X0041564Y0091770D01*
X0041564Y0084979D01*
X0040955Y0083509D01*
X0039830Y0082384D01*
X0038360Y0081775D01*
X0036769Y0081775D01*
X0035298Y0082384D01*
X0034173Y0083509D01*
X0033564Y0084979D01*
X0033564Y0091770D01*
X0034173Y0093241D01*
X0035298Y0094366D01*
X0036588Y0094900D01*
X0028540Y0094900D01*
X0029830Y0094366D01*
X0030955Y0093241D01*
X0031564Y0091770D01*
X0031564Y0084979D01*
X0030955Y0083509D01*
X0029830Y0082384D01*
X0028360Y0081775D01*
X0026769Y0081775D01*
X0025298Y0082384D01*
X0024173Y0083509D01*
X0023564Y0084979D01*
X0023564Y0089900D01*
X0015990Y0089900D01*
X0014877Y0091013D01*
X0010990Y0094900D01*
X0010920Y0094970D01*
X0010821Y0094979D01*
X0010372Y0095517D01*
X0009877Y0096013D01*
X0009877Y0096112D01*
X0009813Y0096188D01*
X0009845Y0096539D01*
X0009667Y0096718D01*
X0009667Y0100032D01*
X0012010Y0102375D01*
X0015323Y0102375D01*
X0017667Y0100032D01*
X0017667Y0098700D01*
X0085990Y0098700D01*
X0089877Y0102587D01*
X0089877Y0112431D01*
X0089830Y0112384D01*
X0088360Y0111775D01*
X0086769Y0111775D01*
X0085298Y0112384D01*
X0085173Y0112509D01*
X0082564Y0109900D01*
X0072564Y0109900D01*
X0064377Y0101713D01*
X0064377Y0101283D01*
X0063981Y0100327D01*
X0063250Y0099596D01*
X0062294Y0099200D01*
X0061260Y0099200D01*
X0060304Y0099596D01*
X0059573Y0100327D01*
X0059177Y0101283D01*
X0059177Y0102317D01*
X0059573Y0103273D01*
X0060304Y0104004D01*
X0061260Y0104400D01*
X0061690Y0104400D01*
X0069563Y0112273D01*
X0068360Y0111775D01*
X0067020Y0111775D01*
X0066697Y0111483D01*
X0066227Y0110969D01*
X0066124Y0110964D01*
X0059996Y0105423D01*
X0059474Y0104900D01*
X0059418Y0104900D01*
X0059377Y0104863D01*
X0058639Y0104900D01*
X0045990Y0104900D01*
X0044877Y0106013D01*
X0039877Y0111013D01*
X0039877Y0112431D01*
X0039830Y0112384D01*
X0038360Y0111775D01*
X0036769Y0111775D01*
X0035298Y0112384D01*
X0034173Y0113509D01*
X0033564Y0114979D01*
X0033564Y0121770D01*
X0034173Y0123241D01*
X0035298Y0124366D01*
X0036769Y0124975D01*
X0038360Y0124975D01*
X0039830Y0124366D01*
X0039877Y0124319D01*
X0039877Y0127900D01*
X0038827Y0126850D01*
X0036877Y0126850D01*
X0036877Y0131700D01*
X0036677Y0131700D01*
X0036677Y0126850D01*
X0034727Y0126850D01*
X0031827Y0129750D01*
X0031827Y0131700D01*
X0036677Y0131700D01*
X0036677Y0131900D01*
X0036677Y0136750D01*
X0034727Y0136750D01*
X0031827Y0133850D01*
X0031827Y0131900D01*
X0036677Y0131900D01*
X0036877Y0131900D01*
X0036877Y0136750D01*
X0038827Y0136750D01*
X0039877Y0135700D01*
X0039877Y0136013D01*
X0038640Y0137250D01*
X0034892Y0137250D01*
X0032227Y0139915D01*
X0032227Y0143685D01*
X0033948Y0145406D01*
X0033047Y0146308D01*
X0032377Y0147925D01*
X0032377Y0155675D01*
X0033047Y0157292D01*
X0034284Y0158530D01*
X0035902Y0159200D01*
X0037652Y0159200D01*
X0039269Y0158530D01*
X0040507Y0157292D01*
X0041177Y0155675D01*
X0041177Y0147925D01*
X0040507Y0146308D01*
X0039605Y0145406D01*
X0041327Y0143685D01*
X0041327Y0139937D01*
X0042564Y0138700D01*
X0043677Y0137587D01*
X0043677Y0135700D01*
X0044727Y0136750D01*
X0046677Y0136750D01*
X0046677Y0131900D01*
X0046877Y0131900D01*
X0046877Y0136750D01*
X0048827Y0136750D01*
X0049877Y0135700D01*
X0049877Y0136013D01*
X0048640Y0137250D01*
X0044892Y0137250D01*
X0042227Y0139915D01*
X0042227Y0143685D01*
X0043948Y0145406D01*
X0043047Y0146308D01*
X0042377Y0147925D01*
X0042377Y0155675D01*
X0043047Y0157292D01*
X0044284Y0158530D01*
X0045902Y0159200D01*
X0047652Y0159200D01*
X0049269Y0158530D01*
X0050507Y0157292D01*
X0051177Y0155675D01*
X0051177Y0147925D01*
X0050507Y0146308D01*
X0049605Y0145406D01*
X0051327Y0143685D01*
X0051327Y0139937D01*
X0052564Y0138700D01*
X0053677Y0137587D01*
X0053677Y0135700D01*
X0054727Y0136750D01*
X0056677Y0136750D01*
X0056677Y0131900D01*
X0056877Y0131900D01*
X0061727Y0131900D01*
X0061727Y0133850D01*
X0058827Y0136750D01*
X0056877Y0136750D01*
X0056877Y0131900D01*
X0056877Y0131700D01*
X0061727Y0131700D01*
X0061727Y0129750D01*
X0058827Y0126850D01*
X0056877Y0126850D01*
X0056877Y0131700D01*
X0056677Y0131700D01*
X0056677Y0126850D01*
X0054727Y0126850D01*
X0053677Y0127900D01*
X0053677Y0127587D01*
X0056430Y0124834D01*
X0056769Y0124975D01*
X0058360Y0124975D01*
X0059830Y0124366D01*
X0060955Y0123241D01*
X0061564Y0121770D01*
X0061564Y0114979D01*
X0060955Y0113509D01*
X0059830Y0112384D01*
X0058360Y0111775D01*
X0056769Y0111775D01*
X0055298Y0112384D01*
X0054173Y0113509D01*
X0053564Y0114979D01*
X0053564Y0121770D01*
X0053727Y0122163D01*
X0050990Y0124900D01*
X0049877Y0126013D01*
X0049877Y0127900D01*
X0048827Y0126850D01*
X0046877Y0126850D01*
X0046877Y0131700D01*
X0046677Y0131700D01*
X0046677Y0126850D01*
X0044727Y0126850D01*
X0043677Y0127900D01*
X0043677Y0122042D01*
X0044173Y0123241D01*
X0045298Y0124366D01*
X0046769Y0124975D01*
X0048360Y0124975D01*
X0049830Y0124366D01*
X0050955Y0123241D01*
X0051564Y0121770D01*
X0051564Y0114979D01*
X0050955Y0113509D01*
X0049830Y0112384D01*
X0048360Y0111775D01*
X0046769Y0111775D01*
X0045298Y0112384D01*
X0044173Y0113509D01*
X0043677Y0114707D01*
X0043677Y0112587D01*
X0047564Y0108700D01*
X0057955Y0108700D01*
X0063928Y0114102D01*
X0063564Y0114979D01*
X0063564Y0121770D01*
X0064173Y0123241D01*
X0065298Y0124366D01*
X0066769Y0124975D01*
X0068360Y0124975D01*
X0069830Y0124366D01*
X0070955Y0123241D01*
X0071564Y0121770D01*
X0071564Y0117809D01*
X0071689Y0117505D01*
X0071564Y0117207D01*
X0071564Y0116847D01*
X0071566Y0116810D01*
X0071564Y0116809D01*
X0071564Y0114979D01*
X0071034Y0113700D01*
X0074094Y0113700D01*
X0073564Y0114979D01*
X0073564Y0121770D01*
X0074173Y0123241D01*
X0075298Y0124366D01*
X0076769Y0124975D01*
X0078360Y0124975D01*
X0079830Y0124366D01*
X0080955Y0123241D01*
X0081564Y0121770D01*
X0081564Y0114979D01*
X0081066Y0113776D01*
X0083564Y0116274D01*
X0083564Y0121770D01*
X0084173Y0123241D01*
X0085298Y0124366D01*
X0086769Y0124975D01*
X0088360Y0124975D01*
X0089830Y0124366D01*
X0089877Y0124319D01*
X0089877Y0127900D01*
X0088827Y0126850D01*
X0086877Y0126850D01*
X0086877Y0131700D01*
X0086677Y0131700D01*
X0086677Y0126850D01*
X0084727Y0126850D01*
X0081827Y0129750D01*
X0081827Y0131700D01*
X0086677Y0131700D01*
X0086677Y0131900D01*
X0086677Y0136750D01*
X0084727Y0136750D01*
X0081827Y0133850D01*
X0081827Y0131900D01*
X0086677Y0131900D01*
X0086877Y0131900D01*
X0086877Y0136750D01*
X0088827Y0136750D01*
X0089877Y0135700D01*
X0089877Y0136013D01*
X0088640Y0137250D01*
X0084892Y0137250D01*
X0082227Y0139915D01*
X0082227Y0143685D01*
X0083948Y0145406D01*
X0083047Y0146308D01*
X0082377Y0147925D01*
X0082377Y0155675D01*
X0083047Y0157292D01*
X0084284Y0158530D01*
X0085902Y0159200D01*
X0087652Y0159200D01*
X0089269Y0158530D01*
X0090507Y0157292D01*
X0091177Y0155675D01*
X0091177Y0147925D01*
X0090507Y0146308D01*
X0089605Y0145406D01*
X0091327Y0143685D01*
X0091327Y0139937D01*
X0092564Y0138700D01*
X0093677Y0137587D01*
X0093677Y0101013D01*
X0092564Y0099900D01*
X0087639Y0094975D01*
X0088360Y0094975D01*
X0089830Y0094366D01*
X0090955Y0093241D01*
X0091564Y0091770D01*
X0091564Y0084979D01*
X0090955Y0083509D01*
X0089830Y0082384D01*
X0088677Y0081906D01*
X0088677Y0081013D01*
X0087564Y0079900D01*
X0082564Y0074900D01*
X0033554Y0074900D01*
X0033250Y0074596D01*
X0029571Y0075332D02*
X0008577Y0075332D01*
X0008577Y0076930D02*
X0029177Y0076930D01*
X0029828Y0078529D02*
X0008577Y0078529D01*
X0008577Y0080127D02*
X0050763Y0080127D01*
X0049164Y0081726D02*
X0008577Y0081726D01*
X0008577Y0083324D02*
X0024358Y0083324D01*
X0023588Y0084923D02*
X0008577Y0084923D01*
X0008577Y0086521D02*
X0023564Y0086521D01*
X0023564Y0088120D02*
X0008577Y0088120D01*
X0008577Y0089718D02*
X0023564Y0089718D01*
X0029473Y0094514D02*
X0035655Y0094514D01*
X0034038Y0092915D02*
X0031090Y0092915D01*
X0031564Y0091317D02*
X0033564Y0091317D01*
X0033564Y0089718D02*
X0031564Y0089718D01*
X0031564Y0088120D02*
X0033564Y0088120D01*
X0033564Y0086521D02*
X0031564Y0086521D01*
X0031541Y0084923D02*
X0033588Y0084923D01*
X0034358Y0083324D02*
X0030770Y0083324D01*
X0039473Y0094514D02*
X0045655Y0094514D01*
X0044038Y0092915D02*
X0041090Y0092915D01*
X0041564Y0091317D02*
X0043564Y0091317D01*
X0043564Y0089718D02*
X0041564Y0089718D01*
X0041564Y0088120D02*
X0043564Y0088120D01*
X0043564Y0086521D02*
X0041564Y0086521D01*
X0041541Y0084923D02*
X0043588Y0084923D01*
X0044358Y0083324D02*
X0040770Y0083324D01*
X0036601Y0068937D02*
X0094977Y0068937D01*
X0094977Y0067339D02*
X0035003Y0067339D01*
X0034152Y0065740D02*
X0094977Y0065740D01*
X0094977Y0070536D02*
X0074068Y0070536D01*
X0074377Y0072134D02*
X0094977Y0072134D01*
X0094977Y0073733D02*
X0073521Y0073733D01*
X0070033Y0073733D02*
X0008577Y0073733D01*
X0008577Y0091317D02*
X0014573Y0091317D01*
X0012975Y0092915D02*
X0008577Y0092915D01*
X0008577Y0094514D02*
X0011376Y0094514D01*
X0009877Y0096112D02*
X0008577Y0096112D01*
X0008577Y0097711D02*
X0009667Y0097711D01*
X0009667Y0099309D02*
X0008577Y0099309D01*
X0008577Y0100908D02*
X0010543Y0100908D01*
X0008577Y0102506D02*
X0059255Y0102506D01*
X0059332Y0100908D02*
X0016791Y0100908D01*
X0017667Y0099309D02*
X0060996Y0099309D01*
X0062558Y0099309D02*
X0086599Y0099309D01*
X0088198Y0100908D02*
X0064221Y0100908D01*
X0065170Y0102506D02*
X0089796Y0102506D01*
X0089877Y0104105D02*
X0066769Y0104105D01*
X0068367Y0105703D02*
X0089877Y0105703D01*
X0089877Y0107302D02*
X0069966Y0107302D01*
X0071564Y0108900D02*
X0089877Y0108900D01*
X0089877Y0110499D02*
X0083163Y0110499D01*
X0084761Y0112097D02*
X0085990Y0112097D01*
X0089138Y0112097D02*
X0089877Y0112097D01*
X0093677Y0112097D02*
X0094977Y0112097D01*
X0094977Y0110499D02*
X0093677Y0110499D01*
X0093677Y0108900D02*
X0094977Y0108900D01*
X0094977Y0107302D02*
X0093677Y0107302D01*
X0093677Y0105703D02*
X0094977Y0105703D01*
X0094977Y0104105D02*
X0093677Y0104105D01*
X0093677Y0102506D02*
X0094977Y0102506D01*
X0094977Y0100908D02*
X0093572Y0100908D01*
X0094977Y0099309D02*
X0091973Y0099309D01*
X0090375Y0097711D02*
X0094977Y0097711D01*
X0094977Y0096112D02*
X0088776Y0096112D01*
X0089473Y0094514D02*
X0094977Y0094514D01*
X0094977Y0092915D02*
X0091090Y0092915D01*
X0091564Y0091317D02*
X0094977Y0091317D01*
X0094977Y0089718D02*
X0091564Y0089718D01*
X0091564Y0088120D02*
X0094977Y0088120D01*
X0094977Y0086521D02*
X0091564Y0086521D01*
X0091541Y0084923D02*
X0094977Y0084923D01*
X0094977Y0083324D02*
X0090770Y0083324D01*
X0088677Y0081726D02*
X0094977Y0081726D01*
X0094977Y0080127D02*
X0087791Y0080127D01*
X0086192Y0078529D02*
X0094977Y0078529D01*
X0094977Y0076930D02*
X0084594Y0076930D01*
X0082995Y0075332D02*
X0094977Y0075332D01*
X0094977Y0113696D02*
X0093677Y0113696D01*
X0093677Y0115294D02*
X0094977Y0115294D01*
X0094977Y0116893D02*
X0093677Y0116893D01*
X0093677Y0118491D02*
X0094977Y0118491D01*
X0094977Y0120090D02*
X0093677Y0120090D01*
X0093677Y0121688D02*
X0094977Y0121688D01*
X0094977Y0123287D02*
X0093677Y0123287D01*
X0093677Y0124885D02*
X0094977Y0124885D01*
X0094977Y0126484D02*
X0093677Y0126484D01*
X0093677Y0128082D02*
X0094977Y0128082D01*
X0094977Y0129681D02*
X0093677Y0129681D01*
X0093677Y0131279D02*
X0094977Y0131279D01*
X0094977Y0132878D02*
X0093677Y0132878D01*
X0093677Y0134476D02*
X0094977Y0134476D01*
X0094977Y0136075D02*
X0093677Y0136075D01*
X0093590Y0137673D02*
X0094977Y0137673D01*
X0094977Y0139272D02*
X0091992Y0139272D01*
X0091327Y0140870D02*
X0094977Y0140870D01*
X0094977Y0142469D02*
X0091327Y0142469D01*
X0090944Y0144068D02*
X0094977Y0144068D01*
X0094977Y0145666D02*
X0089865Y0145666D01*
X0090903Y0147265D02*
X0094977Y0147265D01*
X0094977Y0148863D02*
X0091177Y0148863D01*
X0091177Y0150462D02*
X0094977Y0150462D01*
X0094977Y0152060D02*
X0091177Y0152060D01*
X0091177Y0153659D02*
X0094977Y0153659D01*
X0094977Y0155257D02*
X0091177Y0155257D01*
X0090688Y0156856D02*
X0094977Y0156856D01*
X0094977Y0158454D02*
X0089345Y0158454D01*
X0084208Y0158454D02*
X0079911Y0158454D01*
X0079904Y0158461D02*
X0080438Y0157927D01*
X0080882Y0157316D01*
X0081225Y0156643D01*
X0081459Y0155924D01*
X0081577Y0155178D01*
X0081577Y0152000D01*
X0076977Y0152000D01*
X0076977Y0151600D01*
X0081577Y0151600D01*
X0081577Y0148422D01*
X0081459Y0147676D01*
X0081225Y0146957D01*
X0080882Y0146284D01*
X0080438Y0145673D01*
X0080171Y0145406D01*
X0081727Y0143850D01*
X0081727Y0141900D01*
X0076877Y0141900D01*
X0076877Y0141700D01*
X0081727Y0141700D01*
X0081727Y0139750D01*
X0078827Y0136850D01*
X0076877Y0136850D01*
X0076877Y0141700D01*
X0076677Y0141700D01*
X0076677Y0136850D01*
X0074727Y0136850D01*
X0071827Y0139750D01*
X0071827Y0141700D01*
X0076677Y0141700D01*
X0076677Y0141900D01*
X0076677Y0146750D01*
X0076577Y0146750D01*
X0076577Y0151600D01*
X0076977Y0151600D01*
X0076977Y0146750D01*
X0076877Y0146750D01*
X0076877Y0141900D01*
X0076677Y0141900D01*
X0071827Y0141900D01*
X0071827Y0143850D01*
X0073383Y0145406D01*
X0073116Y0145673D01*
X0072672Y0146284D01*
X0072329Y0146957D01*
X0072095Y0147676D01*
X0071977Y0148422D01*
X0071977Y0151600D01*
X0076577Y0151600D01*
X0076577Y0152000D01*
X0076577Y0159600D01*
X0076399Y0159600D01*
X0075653Y0159482D01*
X0074934Y0159248D01*
X0074261Y0158905D01*
X0073650Y0158461D01*
X0073116Y0157927D01*
X0072672Y0157316D01*
X0072329Y0156643D01*
X0072095Y0155924D01*
X0071977Y0155178D01*
X0071977Y0152000D01*
X0076577Y0152000D01*
X0076977Y0152000D01*
X0076977Y0159600D01*
X0077155Y0159600D01*
X0077901Y0159482D01*
X0078619Y0159248D01*
X0079293Y0158905D01*
X0079904Y0158461D01*
X0081117Y0156856D02*
X0082866Y0156856D01*
X0082377Y0155257D02*
X0081564Y0155257D01*
X0081577Y0153659D02*
X0082377Y0153659D01*
X0082377Y0152060D02*
X0081577Y0152060D01*
X0081577Y0150462D02*
X0082377Y0150462D01*
X0082377Y0148863D02*
X0081577Y0148863D01*
X0081325Y0147265D02*
X0082650Y0147265D01*
X0083688Y0145666D02*
X0080431Y0145666D01*
X0081510Y0144068D02*
X0082610Y0144068D01*
X0082227Y0142469D02*
X0081727Y0142469D01*
X0081727Y0140870D02*
X0082227Y0140870D01*
X0082870Y0139272D02*
X0081249Y0139272D01*
X0079651Y0137673D02*
X0084469Y0137673D01*
X0084052Y0136075D02*
X0079502Y0136075D01*
X0078827Y0136750D02*
X0076877Y0136750D01*
X0076877Y0131900D01*
X0081727Y0131900D01*
X0081727Y0133850D01*
X0078827Y0136750D01*
X0076877Y0136075D02*
X0076677Y0136075D01*
X0076677Y0136750D02*
X0074727Y0136750D01*
X0071827Y0133850D01*
X0071827Y0131900D01*
X0076677Y0131900D01*
X0076677Y0136750D01*
X0076677Y0137673D02*
X0076877Y0137673D01*
X0076877Y0139272D02*
X0076677Y0139272D01*
X0076677Y0140870D02*
X0076877Y0140870D01*
X0076877Y0142469D02*
X0076677Y0142469D01*
X0076677Y0144068D02*
X0076877Y0144068D01*
X0076877Y0145666D02*
X0076677Y0145666D01*
X0076577Y0147265D02*
X0076977Y0147265D01*
X0076977Y0148863D02*
X0076577Y0148863D01*
X0076577Y0150462D02*
X0076977Y0150462D01*
X0076977Y0152060D02*
X0076577Y0152060D01*
X0076577Y0153659D02*
X0076977Y0153659D01*
X0076977Y0155257D02*
X0076577Y0155257D01*
X0076577Y0156856D02*
X0076977Y0156856D01*
X0076977Y0158454D02*
X0076577Y0158454D01*
X0073643Y0158454D02*
X0069345Y0158454D01*
X0069269Y0158530D02*
X0067652Y0159200D01*
X0065902Y0159200D01*
X0064284Y0158530D01*
X0063047Y0157292D01*
X0062377Y0155675D01*
X0062377Y0147925D01*
X0063047Y0146308D01*
X0063948Y0145406D01*
X0062227Y0143685D01*
X0062227Y0139915D01*
X0064892Y0137250D01*
X0068662Y0137250D01*
X0071327Y0139915D01*
X0071327Y0143685D01*
X0069605Y0145406D01*
X0070507Y0146308D01*
X0071177Y0147925D01*
X0071177Y0155675D01*
X0070507Y0157292D01*
X0069269Y0158530D01*
X0070688Y0156856D02*
X0072437Y0156856D01*
X0071989Y0155257D02*
X0071177Y0155257D01*
X0071177Y0153659D02*
X0071977Y0153659D01*
X0071977Y0152060D02*
X0071177Y0152060D01*
X0071177Y0150462D02*
X0071977Y0150462D01*
X0071977Y0148863D02*
X0071177Y0148863D01*
X0070903Y0147265D02*
X0072229Y0147265D01*
X0073123Y0145666D02*
X0069865Y0145666D01*
X0070944Y0144068D02*
X0072044Y0144068D01*
X0071827Y0142469D02*
X0071327Y0142469D01*
X0071327Y0140870D02*
X0071827Y0140870D01*
X0072305Y0139272D02*
X0070684Y0139272D01*
X0069085Y0137673D02*
X0073903Y0137673D01*
X0074052Y0136075D02*
X0069502Y0136075D01*
X0068827Y0136750D02*
X0066877Y0136750D01*
X0066877Y0131900D01*
X0071727Y0131900D01*
X0071727Y0133850D01*
X0068827Y0136750D01*
X0066877Y0136075D02*
X0066677Y0136075D01*
X0066677Y0136750D02*
X0064727Y0136750D01*
X0061827Y0133850D01*
X0061827Y0131900D01*
X0066677Y0131900D01*
X0066677Y0136750D01*
X0066677Y0134476D02*
X0066877Y0134476D01*
X0066877Y0132878D02*
X0066677Y0132878D01*
X0066677Y0131900D02*
X0066877Y0131900D01*
X0066877Y0131700D01*
X0071727Y0131700D01*
X0071727Y0129750D01*
X0068827Y0126850D01*
X0066877Y0126850D01*
X0066877Y0131700D01*
X0066677Y0131700D01*
X0066677Y0126850D01*
X0064727Y0126850D01*
X0061827Y0129750D01*
X0061827Y0131700D01*
X0066677Y0131700D01*
X0066677Y0131900D01*
X0066677Y0131279D02*
X0066877Y0131279D01*
X0066877Y0129681D02*
X0066677Y0129681D01*
X0066677Y0128082D02*
X0066877Y0128082D01*
X0066553Y0124885D02*
X0058576Y0124885D01*
X0060060Y0128082D02*
X0063494Y0128082D01*
X0061896Y0129681D02*
X0061658Y0129681D01*
X0061727Y0131279D02*
X0061827Y0131279D01*
X0061827Y0132878D02*
X0061727Y0132878D01*
X0061101Y0134476D02*
X0062453Y0134476D01*
X0064052Y0136075D02*
X0059502Y0136075D01*
X0058662Y0137250D02*
X0061327Y0139915D01*
X0061327Y0143685D01*
X0059605Y0145406D01*
X0060507Y0146308D01*
X0061177Y0147925D01*
X0061177Y0155675D01*
X0060507Y0157292D01*
X0059269Y0158530D01*
X0057652Y0159200D01*
X0055902Y0159200D01*
X0054284Y0158530D01*
X0053047Y0157292D01*
X0052377Y0155675D01*
X0052377Y0147925D01*
X0053047Y0146308D01*
X0053948Y0145406D01*
X0052227Y0143685D01*
X0052227Y0139915D01*
X0054892Y0137250D01*
X0058662Y0137250D01*
X0059085Y0137673D02*
X0064469Y0137673D01*
X0062870Y0139272D02*
X0060684Y0139272D01*
X0061327Y0140870D02*
X0062227Y0140870D01*
X0062227Y0142469D02*
X0061327Y0142469D01*
X0060944Y0144068D02*
X0062610Y0144068D01*
X0063688Y0145666D02*
X0059865Y0145666D01*
X0060903Y0147265D02*
X0062650Y0147265D01*
X0062377Y0148863D02*
X0061177Y0148863D01*
X0061177Y0150462D02*
X0062377Y0150462D01*
X0062377Y0152060D02*
X0061177Y0152060D01*
X0061177Y0153659D02*
X0062377Y0153659D01*
X0062377Y0155257D02*
X0061177Y0155257D01*
X0060688Y0156856D02*
X0062866Y0156856D01*
X0064208Y0158454D02*
X0059345Y0158454D01*
X0054208Y0158454D02*
X0049345Y0158454D01*
X0050688Y0156856D02*
X0052866Y0156856D01*
X0052377Y0155257D02*
X0051177Y0155257D01*
X0051177Y0153659D02*
X0052377Y0153659D01*
X0052377Y0152060D02*
X0051177Y0152060D01*
X0051177Y0150462D02*
X0052377Y0150462D01*
X0052377Y0148863D02*
X0051177Y0148863D01*
X0050903Y0147265D02*
X0052650Y0147265D01*
X0053688Y0145666D02*
X0049865Y0145666D01*
X0050944Y0144068D02*
X0052610Y0144068D01*
X0052227Y0142469D02*
X0051327Y0142469D01*
X0051327Y0140870D02*
X0052227Y0140870D01*
X0051992Y0139272D02*
X0052870Y0139272D01*
X0053590Y0137673D02*
X0054469Y0137673D01*
X0054052Y0136075D02*
X0053677Y0136075D01*
X0056677Y0136075D02*
X0056877Y0136075D01*
X0056877Y0134476D02*
X0056677Y0134476D01*
X0056677Y0132878D02*
X0056877Y0132878D01*
X0056877Y0131279D02*
X0056677Y0131279D01*
X0056677Y0129681D02*
X0056877Y0129681D01*
X0056877Y0128082D02*
X0056677Y0128082D01*
X0054780Y0126484D02*
X0089877Y0126484D01*
X0089877Y0124885D02*
X0088576Y0124885D01*
X0086553Y0124885D02*
X0078576Y0124885D01*
X0078827Y0126850D02*
X0076877Y0126850D01*
X0076877Y0131700D01*
X0076877Y0131900D01*
X0076677Y0131900D01*
X0076677Y0131700D01*
X0076877Y0131700D01*
X0081727Y0131700D01*
X0081727Y0129750D01*
X0078827Y0126850D01*
X0080060Y0128082D02*
X0083494Y0128082D01*
X0081896Y0129681D02*
X0081658Y0129681D01*
X0081727Y0131279D02*
X0081827Y0131279D01*
X0081827Y0132878D02*
X0081727Y0132878D01*
X0081101Y0134476D02*
X0082453Y0134476D01*
X0086677Y0134476D02*
X0086877Y0134476D01*
X0086877Y0132878D02*
X0086677Y0132878D01*
X0086677Y0131279D02*
X0086877Y0131279D01*
X0086877Y0129681D02*
X0086677Y0129681D01*
X0086677Y0128082D02*
X0086877Y0128082D01*
X0084220Y0123287D02*
X0080909Y0123287D01*
X0081564Y0121688D02*
X0083564Y0121688D01*
X0083564Y0120090D02*
X0081564Y0120090D01*
X0081564Y0118491D02*
X0083564Y0118491D01*
X0083564Y0116893D02*
X0081564Y0116893D01*
X0081564Y0115294D02*
X0082584Y0115294D01*
X0076553Y0124885D02*
X0068576Y0124885D01*
X0070909Y0123287D02*
X0074220Y0123287D01*
X0073564Y0121688D02*
X0071564Y0121688D01*
X0071564Y0120090D02*
X0073564Y0120090D01*
X0073564Y0118491D02*
X0071564Y0118491D01*
X0071564Y0116893D02*
X0073564Y0116893D01*
X0073564Y0115294D02*
X0071564Y0115294D01*
X0069387Y0112097D02*
X0069138Y0112097D01*
X0067789Y0110499D02*
X0065609Y0110499D01*
X0066190Y0108900D02*
X0063842Y0108900D01*
X0064592Y0107302D02*
X0062074Y0107302D01*
X0062993Y0105703D02*
X0060307Y0105703D01*
X0060547Y0104105D02*
X0015619Y0104105D01*
X0015489Y0103975D02*
X0018067Y0106552D01*
X0018067Y0108375D01*
X0018067Y0110197D01*
X0015489Y0112775D01*
X0013667Y0112775D01*
X0013667Y0108375D01*
X0018067Y0108375D01*
X0013667Y0108375D01*
X0013667Y0108375D01*
X0013667Y0108375D01*
X0013667Y0112775D01*
X0011844Y0112775D01*
X0009267Y0110197D01*
X0009267Y0108375D01*
X0013667Y0108375D01*
X0013667Y0103975D01*
X0015489Y0103975D01*
X0017218Y0105703D02*
X0045187Y0105703D01*
X0043588Y0107302D02*
X0018067Y0107302D01*
X0018067Y0108900D02*
X0041990Y0108900D01*
X0040391Y0110499D02*
X0017765Y0110499D01*
X0016167Y0112097D02*
X0025140Y0112097D01*
X0025258Y0112012D02*
X0024698Y0112419D01*
X0024208Y0112908D01*
X0023801Y0113469D01*
X0023487Y0114086D01*
X0023273Y0114744D01*
X0023164Y0115429D01*
X0023164Y0118375D01*
X0027564Y0118375D01*
X0027564Y0118375D01*
X0027564Y0125375D01*
X0027218Y0125375D01*
X0026534Y0125266D01*
X0025875Y0125052D01*
X0025258Y0124738D01*
X0024698Y0124331D01*
X0024208Y0123841D01*
X0023801Y0123281D01*
X0023487Y0122664D01*
X0023273Y0122005D01*
X0023164Y0121321D01*
X0023164Y0118375D01*
X0027564Y0118375D01*
X0027564Y0118375D01*
X0027564Y0125375D01*
X0027911Y0125375D01*
X0028595Y0125266D01*
X0029253Y0125052D01*
X0029870Y0124738D01*
X0030431Y0124331D01*
X0030920Y0123841D01*
X0031327Y0123281D01*
X0031642Y0122664D01*
X0031856Y0122005D01*
X0031964Y0121321D01*
X0031964Y0118375D01*
X0027564Y0118375D01*
X0027564Y0118375D01*
X0027564Y0111375D01*
X0027218Y0111375D01*
X0026534Y0111483D01*
X0025875Y0111697D01*
X0025258Y0112012D01*
X0023685Y0113696D02*
X0008577Y0113696D01*
X0008577Y0115294D02*
X0023186Y0115294D01*
X0023164Y0116893D02*
X0008577Y0116893D01*
X0008577Y0118491D02*
X0023164Y0118491D01*
X0023164Y0120090D02*
X0008577Y0120090D01*
X0008577Y0121688D02*
X0023222Y0121688D01*
X0023805Y0123287D02*
X0008577Y0123287D01*
X0008577Y0124885D02*
X0025547Y0124885D01*
X0024727Y0126850D02*
X0026677Y0126850D01*
X0026677Y0131700D01*
X0026877Y0131700D01*
X0026877Y0131900D01*
X0031727Y0131900D01*
X0031727Y0133850D01*
X0028827Y0136750D01*
X0026877Y0136750D01*
X0026877Y0131900D01*
X0026677Y0131900D01*
X0026677Y0136750D01*
X0024727Y0136750D01*
X0021827Y0133850D01*
X0021827Y0131900D01*
X0026677Y0131900D01*
X0026677Y0131700D01*
X0021827Y0131700D01*
X0021827Y0129750D01*
X0024727Y0126850D01*
X0023494Y0128082D02*
X0020060Y0128082D01*
X0018827Y0126850D02*
X0021727Y0129750D01*
X0021727Y0131700D01*
X0016877Y0131700D01*
X0016877Y0131900D01*
X0021727Y0131900D01*
X0021727Y0133850D01*
X0018827Y0136750D01*
X0016877Y0136750D01*
X0016877Y0131900D01*
X0016677Y0131900D01*
X0016677Y0136750D01*
X0014727Y0136750D01*
X0011827Y0133850D01*
X0011827Y0131900D01*
X0016677Y0131900D01*
X0016677Y0131700D01*
X0016877Y0131700D01*
X0016877Y0126850D01*
X0018827Y0126850D01*
X0016677Y0126850D02*
X0016677Y0131700D01*
X0011827Y0131700D01*
X0011827Y0129750D01*
X0014727Y0126850D01*
X0016677Y0126850D01*
X0016677Y0128082D02*
X0016877Y0128082D01*
X0016877Y0129681D02*
X0016677Y0129681D01*
X0016677Y0131279D02*
X0016877Y0131279D01*
X0016877Y0132878D02*
X0016677Y0132878D01*
X0016677Y0134476D02*
X0016877Y0134476D01*
X0016877Y0136075D02*
X0016677Y0136075D01*
X0014892Y0137250D02*
X0018662Y0137250D01*
X0021327Y0139915D01*
X0021327Y0143685D01*
X0019605Y0145406D01*
X0020507Y0146308D01*
X0021177Y0147925D01*
X0021177Y0155675D01*
X0020507Y0157292D01*
X0019269Y0158530D01*
X0017652Y0159200D01*
X0015902Y0159200D01*
X0014284Y0158530D01*
X0013047Y0157292D01*
X0012377Y0155675D01*
X0012377Y0147925D01*
X0013047Y0146308D01*
X0013948Y0145406D01*
X0012227Y0143685D01*
X0012227Y0139915D01*
X0014892Y0137250D01*
X0014469Y0137673D02*
X0008577Y0137673D01*
X0008577Y0136075D02*
X0014052Y0136075D01*
X0012453Y0134476D02*
X0008577Y0134476D01*
X0008577Y0132878D02*
X0011827Y0132878D01*
X0011827Y0131279D02*
X0008577Y0131279D01*
X0008577Y0129681D02*
X0011896Y0129681D01*
X0013494Y0128082D02*
X0008577Y0128082D01*
X0008577Y0126484D02*
X0039877Y0126484D01*
X0039877Y0124885D02*
X0038576Y0124885D01*
X0036553Y0124885D02*
X0029581Y0124885D01*
X0028827Y0126850D02*
X0031727Y0129750D01*
X0031727Y0131700D01*
X0026877Y0131700D01*
X0026877Y0126850D01*
X0028827Y0126850D01*
X0030060Y0128082D02*
X0033494Y0128082D01*
X0031896Y0129681D02*
X0031658Y0129681D01*
X0031727Y0131279D02*
X0031827Y0131279D01*
X0031827Y0132878D02*
X0031727Y0132878D01*
X0031101Y0134476D02*
X0032453Y0134476D01*
X0034052Y0136075D02*
X0029502Y0136075D01*
X0028662Y0137250D02*
X0031327Y0139915D01*
X0031327Y0143685D01*
X0029605Y0145406D01*
X0030507Y0146308D01*
X0031177Y0147925D01*
X0031177Y0155675D01*
X0030507Y0157292D01*
X0029269Y0158530D01*
X0027652Y0159200D01*
X0025902Y0159200D01*
X0024284Y0158530D01*
X0023047Y0157292D01*
X0022377Y0155675D01*
X0022377Y0147925D01*
X0023047Y0146308D01*
X0023948Y0145406D01*
X0022227Y0143685D01*
X0022227Y0139915D01*
X0024892Y0137250D01*
X0028662Y0137250D01*
X0029085Y0137673D02*
X0034469Y0137673D01*
X0032870Y0139272D02*
X0030684Y0139272D01*
X0031327Y0140870D02*
X0032227Y0140870D01*
X0032227Y0142469D02*
X0031327Y0142469D01*
X0030944Y0144068D02*
X0032610Y0144068D01*
X0033688Y0145666D02*
X0029865Y0145666D01*
X0030903Y0147265D02*
X0032650Y0147265D01*
X0032377Y0148863D02*
X0031177Y0148863D01*
X0031177Y0150462D02*
X0032377Y0150462D01*
X0032377Y0152060D02*
X0031177Y0152060D01*
X0031177Y0153659D02*
X0032377Y0153659D01*
X0032377Y0155257D02*
X0031177Y0155257D01*
X0030688Y0156856D02*
X0032866Y0156856D01*
X0034208Y0158454D02*
X0029345Y0158454D01*
X0024208Y0158454D02*
X0019345Y0158454D01*
X0020688Y0156856D02*
X0022866Y0156856D01*
X0022377Y0155257D02*
X0021177Y0155257D01*
X0021177Y0153659D02*
X0022377Y0153659D01*
X0022377Y0152060D02*
X0021177Y0152060D01*
X0021177Y0150462D02*
X0022377Y0150462D01*
X0022377Y0148863D02*
X0021177Y0148863D01*
X0020903Y0147265D02*
X0022650Y0147265D01*
X0023688Y0145666D02*
X0019865Y0145666D01*
X0020944Y0144068D02*
X0022610Y0144068D01*
X0022227Y0142469D02*
X0021327Y0142469D01*
X0021327Y0140870D02*
X0022227Y0140870D01*
X0022870Y0139272D02*
X0020684Y0139272D01*
X0019085Y0137673D02*
X0024469Y0137673D01*
X0024052Y0136075D02*
X0019502Y0136075D01*
X0021101Y0134476D02*
X0022453Y0134476D01*
X0021827Y0132878D02*
X0021727Y0132878D01*
X0021727Y0131279D02*
X0021827Y0131279D01*
X0021896Y0129681D02*
X0021658Y0129681D01*
X0026677Y0129681D02*
X0026877Y0129681D01*
X0026877Y0131279D02*
X0026677Y0131279D01*
X0026677Y0132878D02*
X0026877Y0132878D01*
X0026877Y0134476D02*
X0026677Y0134476D01*
X0026677Y0136075D02*
X0026877Y0136075D01*
X0026877Y0128082D02*
X0026677Y0128082D01*
X0027564Y0124885D02*
X0027564Y0124885D01*
X0027564Y0123287D02*
X0027564Y0123287D01*
X0027564Y0121688D02*
X0027564Y0121688D01*
X0027564Y0120090D02*
X0027564Y0120090D01*
X0027564Y0118491D02*
X0027564Y0118491D01*
X0027564Y0118375D02*
X0027564Y0118375D01*
X0027564Y0111375D01*
X0027911Y0111375D01*
X0028595Y0111483D01*
X0029253Y0111697D01*
X0029870Y0112012D01*
X0030431Y0112419D01*
X0030920Y0112908D01*
X0031327Y0113469D01*
X0031642Y0114086D01*
X0031856Y0114744D01*
X0031964Y0115429D01*
X0031964Y0118375D01*
X0027564Y0118375D01*
X0027564Y0116893D02*
X0027564Y0116893D01*
X0027564Y0115294D02*
X0027564Y0115294D01*
X0027564Y0113696D02*
X0027564Y0113696D01*
X0027564Y0112097D02*
X0027564Y0112097D01*
X0029988Y0112097D02*
X0035990Y0112097D01*
X0034096Y0113696D02*
X0031443Y0113696D01*
X0031943Y0115294D02*
X0033564Y0115294D01*
X0033564Y0116893D02*
X0031964Y0116893D01*
X0031964Y0118491D02*
X0033564Y0118491D01*
X0033564Y0120090D02*
X0031964Y0120090D01*
X0031906Y0121688D02*
X0033564Y0121688D01*
X0034220Y0123287D02*
X0031323Y0123287D01*
X0036677Y0128082D02*
X0036877Y0128082D01*
X0036877Y0129681D02*
X0036677Y0129681D01*
X0036677Y0131279D02*
X0036877Y0131279D01*
X0036877Y0132878D02*
X0036677Y0132878D01*
X0036677Y0134476D02*
X0036877Y0134476D01*
X0036877Y0136075D02*
X0036677Y0136075D01*
X0039502Y0136075D02*
X0039815Y0136075D01*
X0041992Y0139272D02*
X0042870Y0139272D01*
X0042227Y0140870D02*
X0041327Y0140870D01*
X0041327Y0142469D02*
X0042227Y0142469D01*
X0042610Y0144068D02*
X0040944Y0144068D01*
X0039865Y0145666D02*
X0043688Y0145666D01*
X0042650Y0147265D02*
X0040903Y0147265D01*
X0041177Y0148863D02*
X0042377Y0148863D01*
X0042377Y0150462D02*
X0041177Y0150462D01*
X0041177Y0152060D02*
X0042377Y0152060D01*
X0042377Y0153659D02*
X0041177Y0153659D01*
X0041177Y0155257D02*
X0042377Y0155257D01*
X0042866Y0156856D02*
X0040688Y0156856D01*
X0039345Y0158454D02*
X0044208Y0158454D01*
X0044469Y0137673D02*
X0043590Y0137673D01*
X0043677Y0136075D02*
X0044052Y0136075D01*
X0046677Y0136075D02*
X0046877Y0136075D01*
X0046877Y0134476D02*
X0046677Y0134476D01*
X0046677Y0132878D02*
X0046877Y0132878D01*
X0046877Y0131279D02*
X0046677Y0131279D01*
X0046677Y0129681D02*
X0046877Y0129681D01*
X0046877Y0128082D02*
X0046677Y0128082D01*
X0046553Y0124885D02*
X0043677Y0124885D01*
X0043677Y0123287D02*
X0044220Y0123287D01*
X0043677Y0126484D02*
X0049877Y0126484D01*
X0051005Y0124885D02*
X0048576Y0124885D01*
X0050909Y0123287D02*
X0052603Y0123287D01*
X0053564Y0121688D02*
X0051564Y0121688D01*
X0051564Y0120090D02*
X0053564Y0120090D01*
X0053564Y0118491D02*
X0051564Y0118491D01*
X0051564Y0116893D02*
X0053564Y0116893D01*
X0053564Y0115294D02*
X0051564Y0115294D01*
X0051033Y0113696D02*
X0054096Y0113696D01*
X0055990Y0112097D02*
X0049138Y0112097D01*
X0045990Y0112097D02*
X0044167Y0112097D01*
X0044096Y0113696D02*
X0043677Y0113696D01*
X0045765Y0110499D02*
X0059944Y0110499D01*
X0059138Y0112097D02*
X0061711Y0112097D01*
X0061033Y0113696D02*
X0063479Y0113696D01*
X0063564Y0115294D02*
X0061564Y0115294D01*
X0061564Y0116893D02*
X0063564Y0116893D01*
X0063564Y0118491D02*
X0061564Y0118491D01*
X0061564Y0120090D02*
X0063564Y0120090D01*
X0063564Y0121688D02*
X0061564Y0121688D01*
X0060909Y0123287D02*
X0064220Y0123287D01*
X0070060Y0128082D02*
X0073494Y0128082D01*
X0074727Y0126850D02*
X0076677Y0126850D01*
X0076677Y0131700D01*
X0071827Y0131700D01*
X0071827Y0129750D01*
X0074727Y0126850D01*
X0076677Y0128082D02*
X0076877Y0128082D01*
X0076877Y0129681D02*
X0076677Y0129681D01*
X0076677Y0131279D02*
X0076877Y0131279D01*
X0076877Y0132878D02*
X0076677Y0132878D01*
X0076677Y0134476D02*
X0076877Y0134476D01*
X0072453Y0134476D02*
X0071101Y0134476D01*
X0071727Y0132878D02*
X0071827Y0132878D01*
X0071827Y0131279D02*
X0071727Y0131279D01*
X0071658Y0129681D02*
X0071896Y0129681D01*
X0058176Y0108900D02*
X0047364Y0108900D01*
X0039877Y0112097D02*
X0039138Y0112097D01*
X0049502Y0136075D02*
X0049815Y0136075D01*
X0056379Y0124885D02*
X0056553Y0124885D01*
X0086677Y0136075D02*
X0086877Y0136075D01*
X0089502Y0136075D02*
X0089815Y0136075D01*
X0094977Y0160053D02*
X0008577Y0160053D01*
X0008577Y0161651D02*
X0094977Y0161651D01*
X0094977Y0163250D02*
X0008577Y0163250D01*
X0008577Y0164848D02*
X0094977Y0164848D01*
X0014208Y0158454D02*
X0008577Y0158454D01*
X0008577Y0156856D02*
X0012866Y0156856D01*
X0012377Y0155257D02*
X0008577Y0155257D01*
X0008577Y0153659D02*
X0012377Y0153659D01*
X0012377Y0152060D02*
X0008577Y0152060D01*
X0008577Y0150462D02*
X0012377Y0150462D01*
X0012377Y0148863D02*
X0008577Y0148863D01*
X0008577Y0147265D02*
X0012650Y0147265D01*
X0013688Y0145666D02*
X0008577Y0145666D01*
X0008577Y0144068D02*
X0012610Y0144068D01*
X0012227Y0142469D02*
X0008577Y0142469D01*
X0008577Y0140870D02*
X0012227Y0140870D01*
X0012870Y0139272D02*
X0008577Y0139272D01*
X0008577Y0112097D02*
X0011167Y0112097D01*
X0009568Y0110499D02*
X0008577Y0110499D01*
X0008577Y0108900D02*
X0009267Y0108900D01*
X0009267Y0108375D02*
X0009267Y0106552D01*
X0011844Y0103975D01*
X0013667Y0103975D01*
X0013667Y0108375D01*
X0013667Y0108375D01*
X0013667Y0108375D01*
X0009267Y0108375D01*
X0009267Y0107302D02*
X0008577Y0107302D01*
X0008577Y0105703D02*
X0010116Y0105703D01*
X0008577Y0104105D02*
X0011714Y0104105D01*
X0013667Y0104105D02*
X0013667Y0104105D01*
X0013667Y0105703D02*
X0013667Y0105703D01*
X0013667Y0107302D02*
X0013667Y0107302D01*
X0013667Y0108900D02*
X0013667Y0108900D01*
X0013667Y0110499D02*
X0013667Y0110499D01*
X0013667Y0112097D02*
X0013667Y0112097D01*
X0008577Y0017785D02*
X0034206Y0017785D01*
X0034271Y0017850D02*
X0030727Y0014306D01*
X0030727Y0012000D01*
X0036577Y0012000D01*
X0036577Y0017850D01*
X0034271Y0017850D01*
X0036577Y0017785D02*
X0036977Y0017785D01*
X0036977Y0017850D02*
X0039283Y0017850D01*
X0042060Y0015073D01*
X0044437Y0017450D01*
X0049117Y0017450D01*
X0052427Y0014140D01*
X0052427Y0009460D01*
X0049117Y0006150D01*
X0044437Y0006150D01*
X0042060Y0008527D01*
X0039283Y0005750D01*
X0036977Y0005750D01*
X0036977Y0011600D01*
X0036577Y0011600D01*
X0036577Y0005750D01*
X0034271Y0005750D01*
X0030727Y0009294D01*
X0030727Y0011600D01*
X0036577Y0011600D01*
X0036577Y0012000D01*
X0036977Y0012000D01*
X0036977Y0017850D01*
X0036977Y0016187D02*
X0036577Y0016187D01*
X0036577Y0014588D02*
X0036977Y0014588D01*
X0036977Y0012990D02*
X0036577Y0012990D01*
X0036577Y0011391D02*
X0036977Y0011391D01*
X0036977Y0009793D02*
X0036577Y0009793D01*
X0036577Y0008194D02*
X0036977Y0008194D01*
X0036977Y0006596D02*
X0036577Y0006596D01*
X0033425Y0006596D02*
X0008577Y0006596D01*
X0008577Y0008194D02*
X0031827Y0008194D01*
X0030727Y0009793D02*
X0008577Y0009793D01*
X0008577Y0011391D02*
X0030727Y0011391D01*
X0030727Y0012990D02*
X0008577Y0012990D01*
X0008577Y0014588D02*
X0031009Y0014588D01*
X0032608Y0016187D02*
X0008577Y0016187D01*
X0039348Y0017785D02*
X0084813Y0017785D01*
X0083215Y0016187D02*
X0075424Y0016187D01*
X0075410Y0016200D02*
X0073588Y0016200D01*
X0073588Y0011800D01*
X0077988Y0011800D01*
X0077988Y0013623D01*
X0075410Y0016200D01*
X0073588Y0016187D02*
X0073588Y0016187D01*
X0073588Y0016200D02*
X0071765Y0016200D01*
X0069188Y0013623D01*
X0069188Y0011800D01*
X0073588Y0011800D01*
X0073588Y0011800D01*
X0077988Y0011800D01*
X0077988Y0009977D01*
X0075410Y0007400D01*
X0073588Y0007400D01*
X0073588Y0011800D01*
X0073588Y0011800D01*
X0073588Y0011800D01*
X0073588Y0016200D01*
X0073588Y0014588D02*
X0073588Y0014588D01*
X0073588Y0012990D02*
X0073588Y0012990D01*
X0073588Y0011800D02*
X0073588Y0011800D01*
X0073588Y0007400D01*
X0071765Y0007400D01*
X0069188Y0009977D01*
X0069188Y0011800D01*
X0073588Y0011800D01*
X0073588Y0011391D02*
X0073588Y0011391D01*
X0073588Y0009793D02*
X0073588Y0009793D01*
X0073588Y0008194D02*
X0073588Y0008194D01*
X0076204Y0008194D02*
X0084481Y0008194D01*
X0086080Y0006596D02*
X0049563Y0006596D01*
X0051161Y0008194D02*
X0061537Y0008194D01*
X0061931Y0007800D02*
X0065245Y0007800D01*
X0067588Y0010143D01*
X0067588Y0013457D01*
X0065245Y0015800D01*
X0061931Y0015800D01*
X0059588Y0013457D01*
X0059588Y0010143D01*
X0061931Y0007800D01*
X0059939Y0009793D02*
X0052427Y0009793D01*
X0052427Y0011391D02*
X0059588Y0011391D01*
X0059588Y0012990D02*
X0052427Y0012990D01*
X0051979Y0014588D02*
X0060719Y0014588D01*
X0065639Y0008194D02*
X0070971Y0008194D01*
X0069373Y0009793D02*
X0067237Y0009793D01*
X0067588Y0011391D02*
X0069188Y0011391D01*
X0069188Y0012990D02*
X0067588Y0012990D01*
X0066457Y0014588D02*
X0070153Y0014588D01*
X0071752Y0016187D02*
X0050381Y0016187D01*
X0043991Y0006596D02*
X0040128Y0006596D01*
X0041727Y0008194D02*
X0042393Y0008194D01*
X0043173Y0016187D02*
X0040946Y0016187D01*
X0077022Y0014588D02*
X0082503Y0014588D01*
X0082503Y0012990D02*
X0077988Y0012990D01*
X0077988Y0011391D02*
X0082503Y0011391D01*
X0082883Y0009793D02*
X0077803Y0009793D01*
M02*
