G75*
%MOIN*%
%OFA0B0*%
%FSLAX25Y25*%
%IPPOS*%
%LPD*%
%AMOC8*
5,1,8,0,0,1.08239X$1,22.5*
%
%ADD10C,0.00300*%
%ADD11C,0.00600*%
D10*
X0015988Y0023184D02*
X0015988Y0023802D01*
X0016605Y0024419D01*
X0017839Y0024419D01*
X0018457Y0023802D01*
X0018457Y0022567D01*
X0017839Y0021950D01*
X0016605Y0021950D01*
X0015988Y0023184D02*
X0018457Y0023184D01*
X0019671Y0021950D02*
X0021523Y0021950D01*
X0022140Y0022567D01*
X0022140Y0023802D01*
X0021523Y0024419D01*
X0019671Y0024419D01*
X0019671Y0025653D02*
X0019671Y0021950D01*
X0023364Y0021950D02*
X0023981Y0021950D01*
X0023981Y0022567D01*
X0023364Y0022567D01*
X0023364Y0021950D01*
X0025196Y0023184D02*
X0027664Y0023184D01*
X0027664Y0022567D02*
X0027664Y0023802D01*
X0027047Y0024419D01*
X0025813Y0024419D01*
X0025196Y0023802D01*
X0025196Y0023184D01*
X0025813Y0021950D02*
X0027047Y0021950D01*
X0027664Y0022567D01*
X0028879Y0021950D02*
X0028879Y0023802D01*
X0029496Y0024419D01*
X0030113Y0023802D01*
X0030113Y0021950D01*
X0031348Y0021950D02*
X0031348Y0024419D01*
X0030730Y0024419D01*
X0030113Y0023802D01*
X0032562Y0023802D02*
X0032562Y0022567D01*
X0033179Y0021950D01*
X0034414Y0021950D01*
X0035031Y0022567D01*
X0035031Y0023802D01*
X0034414Y0024419D01*
X0033179Y0024419D01*
X0032562Y0023802D01*
X0033922Y0026950D02*
X0033922Y0028802D01*
X0034539Y0029419D01*
X0036390Y0029419D01*
X0036390Y0026950D01*
X0037605Y0027567D02*
X0038222Y0026950D01*
X0039456Y0026950D01*
X0040074Y0027567D01*
X0037605Y0030036D01*
X0037605Y0027567D01*
X0038714Y0025653D02*
X0038714Y0021950D01*
X0038714Y0023802D02*
X0038097Y0024419D01*
X0036862Y0024419D01*
X0036245Y0023802D01*
X0036245Y0021950D01*
X0039928Y0023802D02*
X0042397Y0023802D01*
X0043611Y0023802D02*
X0043611Y0023184D01*
X0046080Y0023184D01*
X0046080Y0022567D02*
X0046080Y0023802D01*
X0045463Y0024419D01*
X0044229Y0024419D01*
X0043611Y0023802D01*
X0044229Y0021950D02*
X0045463Y0021950D01*
X0046080Y0022567D01*
X0047298Y0024419D02*
X0047915Y0024419D01*
X0049149Y0023184D01*
X0049149Y0021950D02*
X0049149Y0024419D01*
X0048047Y0025716D02*
X0047430Y0025716D01*
X0046813Y0026333D01*
X0046813Y0029419D01*
X0045598Y0030653D02*
X0045598Y0026950D01*
X0046813Y0026950D02*
X0048664Y0026950D01*
X0049281Y0027567D01*
X0049281Y0029419D01*
X0050496Y0030036D02*
X0050496Y0030653D01*
X0052965Y0030653D01*
X0055413Y0030653D02*
X0055413Y0026950D01*
X0054179Y0026950D02*
X0056648Y0026950D01*
X0057869Y0026950D02*
X0058486Y0027567D01*
X0058486Y0030036D01*
X0059103Y0029419D02*
X0057869Y0029419D01*
X0056648Y0029419D02*
X0055413Y0030653D01*
X0052965Y0027567D02*
X0052965Y0026950D01*
X0050496Y0026950D01*
X0050364Y0024419D02*
X0050364Y0021950D01*
X0052215Y0021950D01*
X0052833Y0022567D01*
X0052833Y0024419D01*
X0054047Y0024419D02*
X0055899Y0024419D01*
X0056516Y0023802D01*
X0056516Y0022567D01*
X0055899Y0021950D01*
X0054047Y0021950D01*
X0057730Y0023184D02*
X0060199Y0023184D01*
X0060199Y0022567D02*
X0060199Y0023802D01*
X0059582Y0024419D01*
X0058347Y0024419D01*
X0057730Y0023802D01*
X0057730Y0023184D01*
X0058347Y0021950D02*
X0059582Y0021950D01*
X0060199Y0022567D01*
X0061413Y0022567D02*
X0062030Y0023184D01*
X0063265Y0023184D01*
X0063882Y0023802D01*
X0063265Y0024419D01*
X0061413Y0024419D01*
X0061413Y0022567D02*
X0062030Y0021950D01*
X0063882Y0021950D01*
X0067565Y0021950D02*
X0065096Y0025653D01*
X0064001Y0026950D02*
X0064001Y0029419D01*
X0065235Y0030653D01*
X0066469Y0029419D01*
X0066469Y0026950D01*
X0066469Y0028802D02*
X0064001Y0028802D01*
X0062786Y0029419D02*
X0060935Y0029419D01*
X0060317Y0028802D01*
X0060317Y0026950D01*
X0062786Y0026950D02*
X0062786Y0029419D01*
X0068780Y0025653D02*
X0071248Y0021950D01*
X0072473Y0021950D02*
X0073090Y0021950D01*
X0073090Y0022567D01*
X0072473Y0022567D01*
X0072473Y0021950D01*
X0072473Y0023802D02*
X0073090Y0023802D01*
X0073090Y0024419D01*
X0072473Y0024419D01*
X0072473Y0023802D01*
X0074304Y0023802D02*
X0074304Y0022567D01*
X0074921Y0021950D01*
X0076773Y0021950D01*
X0077994Y0021950D02*
X0078611Y0022567D01*
X0078611Y0025036D01*
X0079228Y0024419D02*
X0077994Y0024419D01*
X0076773Y0024419D02*
X0074921Y0024419D01*
X0074304Y0023802D01*
X0076773Y0024419D02*
X0076773Y0020716D01*
X0080450Y0021950D02*
X0081067Y0022567D01*
X0081067Y0025036D01*
X0081684Y0024419D02*
X0080450Y0024419D01*
X0082898Y0023802D02*
X0082898Y0021950D01*
X0082898Y0023802D02*
X0083515Y0024419D01*
X0084750Y0024419D01*
X0085367Y0023802D01*
X0085367Y0025653D02*
X0085367Y0021950D01*
X0052965Y0027567D02*
X0050496Y0030036D01*
X0045598Y0028184D02*
X0043747Y0029419D01*
X0042529Y0030653D02*
X0041912Y0030653D01*
X0041912Y0026950D01*
X0042529Y0026950D02*
X0041295Y0026950D01*
X0040074Y0027567D02*
X0040074Y0030036D01*
X0039456Y0030653D01*
X0038222Y0030653D01*
X0037605Y0030036D01*
X0043747Y0026950D02*
X0045598Y0028184D01*
D11*
X0047076Y0048006D02*
X0049211Y0048006D01*
X0050279Y0049073D01*
X0050279Y0051208D01*
X0049211Y0052276D01*
X0047076Y0052276D01*
X0046009Y0051208D01*
X0046009Y0050141D01*
X0050279Y0050141D01*
X0052454Y0052276D02*
X0055657Y0052276D01*
X0056724Y0051208D01*
X0056724Y0049073D01*
X0055657Y0048006D01*
X0052454Y0048006D01*
X0052454Y0054411D01*
X0058899Y0054411D02*
X0063170Y0050141D01*
X0062102Y0051208D02*
X0058899Y0048006D01*
X0063170Y0048006D02*
X0063170Y0054411D01*
X0043833Y0052276D02*
X0043833Y0048006D01*
X0043833Y0052276D02*
X0040631Y0052276D01*
X0039563Y0051208D01*
X0039563Y0048006D01*
M02*
