%
M48
M72
T01C0.01200
T02C0.03200
T03C0.03600
T04C0.04000
T05C0.05512
%
T01
X31777Y66800
X31777Y76800
X61777Y101800
X81777Y81800
X71777Y71800
T02
X67564Y88375
X57564Y88375
X47564Y88375
X37564Y88375
X27564Y88375
X13667Y98375
X13667Y108375
X27564Y118375
X37564Y118375
X47564Y118375
X57564Y118375
X67564Y118375
X77564Y118375
X87564Y118375
X87564Y88375
X77564Y88375
X73588Y11800
X63588Y11800
T03
X66777Y131800
X66777Y141800
X76777Y141800
X76777Y131800
X86777Y131800
X86777Y141800
X56777Y141800
X56777Y131800
X46777Y131800
X46777Y141800
X36777Y141800
X36777Y131800
X26777Y131800
X26777Y141800
X16777Y141800
X16777Y131800
T04
X36777Y11800
X46777Y11800
X46777Y151800
X56777Y151800
X66777Y151800
X76777Y151800
X86777Y151800
X36777Y151800
X26777Y151800
X16777Y151800
T05
X88903Y12824
M30
